PathFileType	4	(X/Y/Z)	C:/Users/opensim2020/Desktop/walking_exp_matlab/subject02_walking13_straight_04.trc																																																																																																																									
DataRate	CameraRate	NumFrames	NumMarkers	Units	OrigDataRate	OrigDataStartFrame	OrigNumFrames																																																																																																																					
100	100	4	41	mm	100	1809	118																																																																																																																					
Frame#	Time	LFHD			RFHD			LBHD			RBHD			C7			T10			CLAV			STRN			RBAK			LSHO			LUPA			LELB			LFRM			LWRA			LWRB			LFIN			RSHO			RUPA			RELB			RFRM			RWRA			RWRB			RFIN			LASI			RASI			LPSI			RPSI			LTHI			LKNE			LTIB			LANK			LHEE			LTOE			RTHI			RKNE			RTIB			RANK			RHEE			RTOE			*39			*40		
		X1	Y1	Z1	X2	Y2	Z2	X3	Y3	Z3	X4	Y4	Z4	X5	Y5	Z5	X6	Y6	Z6	X7	Y7	Z7	X8	Y8	Z8	X9	Y9	Z9	X10	Y10	Z10	X11	Y11	Z11	X12	Y12	Z12	X13	Y13	Z13	X14	Y14	Z14	X15	Y15	Z15	X16	Y16	Z16	X17	Y17	Z17	X18	Y18	Z18	X19	Y19	Z19	X20	Y20	Z20	X21	Y21	Z21	X22	Y22	Z22	X23	Y23	Z23	X24	Y24	Z24	X25	Y25	Z25	X26	Y26	Z26	X27	Y27	Z27	X28	Y28	Z28	X29	Y29	Z29	X30	Y30	Z30	X31	Y31	Z31	X32	Y32	Z32	X33	Y33	Z33	X34	Y34	Z34	X35	Y35	Z35	X36	Y36	Z36	X37	Y37	Z37	X38	Y38	Z38	X39	Y39	Z39	X40	Y40	Z40	X41	Y41	Z41
																																																																																																																												
74	0.73	144.12544	1720.45557	-1430.6178	114.74229	1690.40295	-1292.29126	7.35743	1670.20007	-1469.28918	-33.23079	1640.93042	-1333.69788	-76.87386	1515.76965	-1405.53198	-106.19245	1231.11731	-1403.42297	64.0225	1454.89172	-1419.64001	132.52017	1290.32471	-1423.28674	-121.65362	1327.37732	-1350.07239	-14.48405	1502.55969	-1584.40186	-2.9672	1315.32629	-1688.98523	34.14878	1183.46606	-1730.75391	132.82518	1091.82764	-1751.48694	259.22815	1040.17004	-1718.79309	228.19511	1012.45038	-1756.82422	288.63541	980.62598	-1755.91675	-4.58464	1473.2428	-1222.06396	-48.6694	1283.47595	-1149.20203	-48.17432	1137.75928	-1136.08228	-36.53472	1020.02161	-1113.12573	-0.49141	888.38232	-1122.07971	-52.47086	891.07935	-1099.89441	-24.11874	824.33698	-1090.17053	112.74411	975.71539	-1563.09045	157.19048	978.1662	-1311.96594	-80.42399	1020.15527	-1448.23523	-67.90929	1024.31152	-1333.75073	60.02141	663.88214	-1621.43835	52.62185	484.23227	-1614.02783	-100.3459	387.51318	-1592.77563	-247.00514	222.97357	-1557.18555	-272.80023	219.20039	-1495.02856	-189.31544	84.60969	-1604.33154	135.92776	669.77057	-1242.96497	153.64995	463.34506	-1295.70129	113.47289	278.08911	-1287.60217	79.94231	89.6202	-1327.80383	36.3389	37.74889	-1379.69226	230.46078	36.17643	-1330.92029	38.50414	1795.02844	-1352.04993	-2846.10645	1034.30151	3357.11938
75	0.74	157.29391	1722.57654	-1430.30933	127.7807	1692.31702	-1292.04004	20.4976	1672.68213	-1469.26318	-20.21449	1643.22241	-1333.68201	-64.04121	1518.38074	-1405.40356	-93.88348	1233.57581	-1402.84729	76.59126	1457.16309	-1419.91724	144.86659	1292.53821	-1423.46631	-108.9073	1330.1864	-1348.95764	-2.48419	1504.56885	-1584.45593	6.6919	1316.13623	-1687.70911	41.61789	1183.14441	-1727.68469	136.6532	1087.46228	-1748.06201	260.55753	1030.09058	-1714.69104	228.49428	1004.15631	-1753.13306	287.21918	969.9342	-1752.5686	9.17572	1476.25586	-1221.80042	-32.10176	1285.99011	-1147.73914	-30.34012	1140.36572	-1134.81421	-15.32663	1022.66785	-1112.01965	22.99969	892.14166	-1121.76306	-28.6243	893.30774	-1099.09326	1.51433	827.53711	-1089.47302	124.00772	980.01276	-1564.38574	168.9901	980.01355	-1311.89551	-67.94029	1022.90582	-1447.15186	-55.75119	1026.37415	-1332.96875	79.33317	667.52869	-1621.6991	76.52654	488.01877	-1613.69031	-73.53079	387.87747	-1591.89404	-216.15909	218.97321	-1557.20837	-242.68408	213.93745	-1495.32019	-152.54832	83.6441	-1604.70728	142.09216	670.28363	-1242.52441	156.37038	463.03238	-1295.11255	114.02398	278.15488	-1287.45581	79.96978	89.81696	-1327.99548	36.43114	37.67993	-1380.13879	230.31883	36.18835	-1330.71619	51.7715	1797.17224	-1351.67688	NaN	NaN	NaN
76	0.75	170.59338	1724.32288	-1429.89246	140.88745	1694.10645	-1291.91394	33.60576	1674.84424	-1469.19971	-7.28257	1645.29846	-1333.71802	-51.25891	1520.74829	-1405.27405	-81.52092	1235.85876	-1402.22058	89.24628	1459.26392	-1420.25598	157.17821	1294.53796	-1423.52637	-96.06973	1332.724	-1347.776	9.54475	1506.38354	-1584.48071	16.61951	1316.73108	-1686.22827	49.24313	1182.66553	-1724.6051	140.22148	1082.75146	-1744.41895	261.20694	1019.94244	-1710.84119	228.06972	995.66724	-1749.46484	285.31299	958.7569	-1748.85059	21.81967	1479.47144	-1222.32593	-16.82091	1288.5177	-1146.92627	-12.31367	1142.81018	-1133.13013	5.40378	1025.521	-1111.44849	46.29191	895.69208	-1121.92688	-5.23311	895.68719	-1098.2644	27.51517	831.09967	-1089.07007	135.60628	984.29248	-1565.12231	180.27049	981.52234	-1311.83765	-55.33163	1025.51404	-1446.54565	-43.5406	1028.37109	-1332.29236	98.2774	671.08374	-1622.09253	99.89056	491.68729	-1613.2915	-46.90891	387.27466	-1591.44275	-184.48698	213.73241	-1557.59131	-211.52298	207.41516	-1495.96655	-114.96175	81.79502	-1605.21252	148.38351	670.67078	-1242.28113	158.71211	462.68674	-1294.7124	114.37545	278.34079	-1287.17432	79.86703	90.0002	-1328.13269	35.96919	37.4604	-1380.04016	230.21262	36.1791	-1330.61633	65.03927	1799.13904	-1351.51636	NaN	NaN	NaN
77	0.76	183.64432	1726.04028	-1430.07153	153.96402	1695.73389	-1291.88696	46.6906	1676.78015	-1469.31567	5.70986	1647.21106	-1333.77075	-38.29432	1522.80542	-1405.29126	-69.13609	1237.92798	-1401.39783	101.87935	1461.14575	-1420.59875	169.60138	1296.41162	-1423.49402	-83.8808	1335.29602	-1347.25305	21.4825	1507.95093	-1584.63562	26.49766	1317.47009	-1685.26172	56.68155	1182.43994	-1722.09143	143.02162	1078.37927	-1741.47729	261.17151	1009.69702	-1707.20837	227.00343	987.18262	-1745.9314	282.04117	947.76312	-1745.62976	34.95316	1482.28333	-1222.67725	0.24943	1291.25781	-1145.50916	5.71778	1145.24207	-1131.78687	26.03991	1028.18994	-1110.74622	69.9717	899.39362	-1121.96436	18.80406	898.09918	-1097.54443	53.43235	834.39417	-1088.61304	147.67189	988.23761	-1564.86475	191.72623	982.9812	-1311.37256	-42.75264	1027.90063	-1446.38953	-31.19575	1030.28418	-1332.02124	116.69132	674.71527	-1622.55042	122.92366	495.00146	-1612.8761	-20.57483	385.61234	-1591.34424	-152.16621	207.53983	-1558.49048	-179.34378	199.76248	-1496.78528	-76.31025	78.82131	-1605.58008	154.51245	670.91858	-1242.38879	161.02707	462.51758	-1294.44922	114.61523	278.6496	-1286.89636	79.82639	90.10104	-1328.26868	35.95984	37.59451	-1380.24084	229.99449	35.85498	-1330.71362	78.28909	1801.04077	-1351.57397	NaN	NaN	NaN
